<svg width="26" height="26" viewBox="0 0 26 26" fill="none" xmlns="http://www.w3.org/2000/svg">
<path d="M18.332 19.9062V21.9375C18.332 24.1776 16.5097 26 14.2695 26H4.0625C1.82237 26 0 24.1776 0 21.9375V4.0625C0 1.82237 1.82237 0 4.0625 0H14.2695C16.5097 0 18.332 1.82237 18.332 4.0625V6.09375C18.332 6.65472 17.8774 7.10938 17.3164 7.10938C16.7554 7.10938 16.3008 6.65472 16.3008 6.09375V4.0625C16.3008 2.94254 15.3895 2.03125 14.2695 2.03125H4.0625C2.94254 2.03125 2.03125 2.94254 2.03125 4.0625V21.9375C2.03125 23.0575 2.94254 23.9688 4.0625 23.9688H14.2695C15.3895 23.9688 16.3008 23.0575 16.3008 21.9375V19.9062C16.3008 19.3453 16.7554 18.8906 17.3164 18.8906C17.8774 18.8906 18.332 19.3453 18.332 19.9062ZM25.2563 11.2554L22.9821 8.98114C22.5854 8.58441 21.9423 8.58441 21.5457 8.98114C21.149 9.37767 21.149 10.0208 21.5457 10.4173L23.1634 12.0352H10.9688C10.4078 12.0352 9.95313 12.4898 9.95313 13.0508C9.95313 13.6118 10.4078 14.0664 10.9688 14.0664H23.1634L21.5457 15.6843C21.149 16.0808 21.149 16.7239 21.5457 17.1204C21.7441 17.3188 22.004 17.418 22.2638 17.418C22.5239 17.418 22.7837 17.3188 22.9821 17.1204L25.2563 14.8462C26.2464 13.8561 26.2464 12.2454 25.2563 11.2554Z" fill="white"/>
</svg>
