<svg width="26" height="26" viewBox="0 0 26 26" fill="none" xmlns="http://www.w3.org/2000/svg">
<path d="M23.207 2H2.79297C1.25293 2 0 3.25293 0 4.79297V18.1992C0 19.7393 1.25293 20.9922 2.79297 20.9922H9.36985C9.45014 20.9922 9.52646 21.0307 9.57414 21.0954L11.9737 24.3486C12.2142 24.6746 12.5844 24.8627 12.9895 24.8646H12.9956C13.3984 24.8646 13.768 24.6801 14.0102 24.3579L16.4642 21.0935C16.5119 21.03 16.5878 20.9921 16.6672 20.9921H23.207C24.7471 20.9921 26 19.7392 26 18.1992V4.79292C26 3.25288 24.7471 2 23.207 2ZM24.4766 18.1992C24.4766 18.3192 24.4595 18.4351 24.4283 18.5451L16.6026 11.6852L24.4766 5.15077V18.1992ZM23.207 3.52344C23.4393 3.52344 23.657 3.58641 23.8444 3.69574L13.8129 12.0206C13.3431 12.4105 12.6612 12.4105 12.1914 12.0206L2.15815 3.69427C2.34503 3.58585 2.56181 3.52344 2.79297 3.52344H23.207ZM1.57173 18.5451C1.5405 18.4351 1.52344 18.3191 1.52344 18.1992V5.14722L9.39951 11.6833L1.57173 18.5451ZM15.2465 20.1781L12.9974 23.1699L10.8002 20.1911C10.4666 19.7388 9.93185 19.4687 9.3698 19.4687H2.82918L10.5866 12.6685L11.2185 13.1929C11.7353 13.6218 12.3686 13.8361 13.0021 13.8361C13.6355 13.8361 14.269 13.6216 14.7857 13.1929L15.4154 12.6704L23.1707 19.4687H16.6672C16.1116 19.4688 15.5805 19.7339 15.2465 20.1781Z" fill="white"/>
</svg>
