<svg width="23" height="21" viewBox="0 0 23 21" fill="none" xmlns="http://www.w3.org/2000/svg">
<path d="M20.2633 20.251H2.38828C1.3427 20.251 0.49231 19.4006 0.49231 18.3552C0.49231 17.8004 0.733917 17.2751 1.15544 16.9143C2.80305 15.5222 3.74231 13.4987 3.74231 11.3547V8.33424C3.74231 4.15273 7.14406 0.750977 11.3258 0.750977C15.5073 0.750977 18.909 4.15273 18.909 8.33424V11.3547C18.909 13.4987 19.8483 15.5222 21.4852 16.9068C21.9174 17.2751 22.159 17.8004 22.159 18.3552C22.159 19.4006 21.3087 20.251 20.2633 20.251ZM11.3258 2.37598C8.03987 2.37598 5.36731 5.04854 5.36731 8.33424V11.3547C5.36731 13.9773 4.21799 16.4539 2.2149 18.1471C2.17702 18.1797 2.11731 18.2469 2.11731 18.3552C2.11731 18.5024 2.24089 18.626 2.38828 18.626H20.2633C20.4105 18.626 20.534 18.5024 20.534 18.3552C20.534 18.2469 20.4745 18.1797 20.4386 18.1493C18.4334 16.4539 17.284 13.9773 17.284 11.3547V8.33424C17.284 5.04854 14.6115 2.37598 11.3258 2.37598Z" fill="#0C0B0B"/>
</svg>
