<svg width="22" height="21" viewBox="0 0 22 21" fill="none" xmlns="http://www.w3.org/2000/svg">
<path d="M14.5061 2.59024C11.3764 -0.53944 6.28259 -0.53944 3.15291 2.59024C0.0239012 5.72061 0.0239012 10.8137 3.15291 13.9441C5.93997 16.7305 10.2807 17.029 13.4083 14.8532C13.4741 15.1646 13.6248 15.4618 13.867 15.704L18.4248 20.2618C19.089 20.9246 20.1623 20.9246 20.8231 20.2618C21.4866 19.5983 21.4866 18.525 20.8231 17.8635L16.2653 13.3043C16.0244 13.0641 15.7266 12.9128 15.4152 12.847C17.5923 9.7187 17.2938 5.37867 14.5061 2.59024ZM13.0671 12.5051C10.7305 14.8417 6.92779 14.8417 4.5919 12.5051C2.25668 10.1685 2.25668 6.36649 4.5919 4.02991C6.92779 1.69401 10.7305 1.69401 13.0671 4.02991C15.4037 6.36649 15.4037 10.1685 13.0671 12.5051Z" fill="#0C0B0B"/>
</svg>
