<svg width="27" height="26" viewBox="0 0 27 26" fill="none" xmlns="http://www.w3.org/2000/svg">
<g clip-path="url(#clip0_6_341)">
<path d="M18.1927 14.2305C19.6769 15.238 20.7169 16.603 20.7169 18.423V21.673H25.0502V18.423C25.0502 16.0613 21.1827 14.6638 18.1927 14.2305Z" fill="white"/>
<path d="M16.3846 13.0075C18.7788 13.0075 20.7179 11.0683 20.7179 8.67415C20.7179 6.27999 18.7788 4.34082 16.3846 4.34082C15.8754 4.34082 15.3988 4.44915 14.9438 4.60082C15.8429 5.71665 16.3846 7.13582 16.3846 8.67415C16.3846 10.2125 15.8429 11.6317 14.9438 12.7475C15.3988 12.8992 15.8754 13.0075 16.3846 13.0075Z" fill="white"/>
<path d="M9.8847 13.0075C12.2789 13.0075 14.218 11.0683 14.218 8.67415C14.218 6.27999 12.2789 4.34082 9.8847 4.34082C7.49053 4.34082 5.55136 6.27999 5.55136 8.67415C5.55136 11.0683 7.49053 13.0075 9.8847 13.0075ZM9.8847 6.50749C11.0764 6.50749 12.0514 7.48249 12.0514 8.67415C12.0514 9.86582 11.0764 10.8408 9.8847 10.8408C8.69303 10.8408 7.71803 9.86582 7.71803 8.67415C7.71803 7.48249 8.69303 6.50749 9.8847 6.50749Z" fill="white"/>
<path d="M9.88469 14.0908C6.99219 14.0908 1.21802 15.5425 1.21802 18.4242V21.6742H18.5514V18.4242C18.5514 15.5425 12.7772 14.0908 9.88469 14.0908ZM16.3847 19.5075H3.38468V18.435C3.60135 17.655 6.95968 16.2575 9.88469 16.2575C12.8097 16.2575 16.168 17.655 16.3847 18.4242V19.5075Z" fill="white"/>
</g>
<defs>
<clipPath id="clip0_6_341">
<rect width="26" height="26" fill="white" transform="translate(0.132812)"/>
</clipPath>
</defs>
</svg>
